<svg xmlns="http://www.w3.org/2000/svg" xmlns:xlink="http://www.w3.org/1999/xlink" width="300" zoomAndPan="magnify" viewBox="0 0 224.87999 74.999997" height="100" preserveAspectRatio="xMidYMid meet" version="1.0"><defs><g/><clipPath id="17ff7bf323"><path d="M 183.644531 0.0195312 L 224.566406 0.0195312 L 224.566406 41.246094 L 183.644531 41.246094 Z M 183.644531 0.0195312 " clip-rule="nonzero"/></clipPath></defs><g clip-path="url(#17ff7bf323)"><path fill="#ff914d" d="M 215.851562 41.246094 L 224.871094 41.246094 L 224.871094 0.0195312 L 183.644531 0.0195312 L 183.644531 9.042969 L 215.851562 9.042969 Z M 215.851562 41.246094 " fill-opacity="1" fill-rule="nonzero"/></g><g fill="#000000" fill-opacity="1"><g transform="translate(6.833389, 55.972298)"><g><path d="M 28.921875 0 L 23.40625 -19.328125 L 17.90625 0 L 9.1875 0 L -0.625 -34.4375 L 8.09375 -34.4375 L 13.984375 -10.8125 L 14.1875 -10.8125 L 20.453125 -34.4375 L 26.375 -34.4375 L 32.640625 -10.8125 L 32.84375 -10.8125 L 38.734375 -34.4375 L 47.40625 -34.4375 L 37.609375 0 Z M 28.921875 0 "/></g></g></g><g fill="#000000" fill-opacity="1"><g transform="translate(67.791461, 55.972298)"><g><path d="M 22.203125 -34.4375 L 22.203125 -27.546875 L 10.34375 -27.546875 L 10.34375 -20.703125 L 21.703125 -20.703125 L 21.703125 -13.8125 L 10.34375 -13.8125 L 10.34375 -6.890625 L 22.203125 -6.890625 L 22.203125 0 L 2.5 0 L 2.5 -34.4375 Z M 22.203125 -34.4375 "/></g></g></g><g fill="#000000" fill-opacity="1"><g transform="translate(106.17908, 55.972298)"><g><path d="M 10.34375 -34.4375 L 10.34375 0 L 2.5 0 L 2.5 -34.4375 Z M 10.34375 -34.4375 "/></g></g></g><g fill="#000000" fill-opacity="1"><g transform="translate(133.218894, 55.972298)"><g><path d="M 15.1875 -35.0625 C 17.050781 -35.0625 18.875 -34.785156 20.65625 -34.234375 C 22.4375 -33.691406 23.757812 -33.160156 24.625 -32.640625 L 25.875 -31.796875 L 22.703125 -25.546875 C 22.453125 -25.710938 22.101562 -25.925781 21.65625 -26.1875 C 21.21875 -26.445312 20.382812 -26.800781 19.15625 -27.25 C 17.925781 -27.695312 16.785156 -27.921875 15.734375 -27.921875 C 14.421875 -27.921875 13.410156 -27.640625 12.703125 -27.078125 C 11.992188 -26.523438 11.640625 -25.773438 11.640625 -24.828125 C 11.640625 -24.359375 11.804688 -23.921875 12.140625 -23.515625 C 12.472656 -23.109375 13.039062 -22.675781 13.84375 -22.21875 C 14.65625 -21.757812 15.367188 -21.390625 15.984375 -21.109375 C 16.597656 -20.835938 17.546875 -20.421875 18.828125 -19.859375 C 21.046875 -18.921875 22.941406 -17.632812 24.515625 -16 C 26.085938 -14.375 26.875 -12.53125 26.875 -10.46875 C 26.875 -8.5 26.519531 -6.773438 25.8125 -5.296875 C 25.101562 -3.828125 24.128906 -2.671875 22.890625 -1.828125 C 21.648438 -0.992188 20.28125 -0.378906 18.78125 0.015625 C 17.28125 0.421875 15.648438 0.625 13.890625 0.625 C 12.390625 0.625 10.914062 0.46875 9.46875 0.15625 C 8.019531 -0.144531 6.804688 -0.523438 5.828125 -0.984375 C 4.859375 -1.441406 3.984375 -1.890625 3.203125 -2.328125 C 2.429688 -2.773438 1.863281 -3.15625 1.5 -3.46875 L 0.953125 -3.921875 L 4.890625 -10.515625 C 5.222656 -10.234375 5.679688 -9.878906 6.265625 -9.453125 C 6.847656 -9.023438 7.882812 -8.445312 9.375 -7.71875 C 10.863281 -7 12.175781 -6.640625 13.3125 -6.640625 C 16.625 -6.640625 18.28125 -7.765625 18.28125 -10.015625 C 18.28125 -10.484375 18.160156 -10.921875 17.921875 -11.328125 C 17.679688 -11.734375 17.265625 -12.132812 16.671875 -12.53125 C 16.078125 -12.9375 15.546875 -13.257812 15.078125 -13.5 C 14.617188 -13.738281 13.867188 -14.097656 12.828125 -14.578125 C 11.785156 -15.066406 11.015625 -15.4375 10.515625 -15.6875 C 8.429688 -16.71875 6.816406 -18.003906 5.671875 -19.546875 C 4.535156 -21.097656 3.96875 -22.765625 3.96875 -24.546875 C 3.96875 -27.628906 5.109375 -30.148438 7.390625 -32.109375 C 9.671875 -34.078125 12.269531 -35.0625 15.1875 -35.0625 Z M 15.1875 -35.0625 "/></g></g></g><g fill="#000000" fill-opacity="1"><g transform="translate(175.44474, 55.972298)"><g><path d="M 15.1875 -35.0625 C 17.050781 -35.0625 18.875 -34.785156 20.65625 -34.234375 C 22.4375 -33.691406 23.757812 -33.160156 24.625 -32.640625 L 25.875 -31.796875 L 22.703125 -25.546875 C 22.453125 -25.710938 22.101562 -25.925781 21.65625 -26.1875 C 21.21875 -26.445312 20.382812 -26.800781 19.15625 -27.25 C 17.925781 -27.695312 16.785156 -27.921875 15.734375 -27.921875 C 14.421875 -27.921875 13.410156 -27.640625 12.703125 -27.078125 C 11.992188 -26.523438 11.640625 -25.773438 11.640625 -24.828125 C 11.640625 -24.359375 11.804688 -23.921875 12.140625 -23.515625 C 12.472656 -23.109375 13.039062 -22.675781 13.84375 -22.21875 C 14.65625 -21.757812 15.367188 -21.390625 15.984375 -21.109375 C 16.597656 -20.835938 17.546875 -20.421875 18.828125 -19.859375 C 21.046875 -18.921875 22.941406 -17.632812 24.515625 -16 C 26.085938 -14.375 26.875 -12.53125 26.875 -10.46875 C 26.875 -8.5 26.519531 -6.773438 25.8125 -5.296875 C 25.101562 -3.828125 24.128906 -2.671875 22.890625 -1.828125 C 21.648438 -0.992188 20.28125 -0.378906 18.78125 0.015625 C 17.28125 0.421875 15.648438 0.625 13.890625 0.625 C 12.390625 0.625 10.914062 0.46875 9.46875 0.15625 C 8.019531 -0.144531 6.804688 -0.523438 5.828125 -0.984375 C 4.859375 -1.441406 3.984375 -1.890625 3.203125 -2.328125 C 2.429688 -2.773438 1.863281 -3.15625 1.5 -3.46875 L 0.953125 -3.921875 L 4.890625 -10.515625 C 5.222656 -10.234375 5.679688 -9.878906 6.265625 -9.453125 C 6.847656 -9.023438 7.882812 -8.445312 9.375 -7.71875 C 10.863281 -7 12.175781 -6.640625 13.3125 -6.640625 C 16.625 -6.640625 18.28125 -7.765625 18.28125 -10.015625 C 18.28125 -10.484375 18.160156 -10.921875 17.921875 -11.328125 C 17.679688 -11.734375 17.265625 -12.132812 16.671875 -12.53125 C 16.078125 -12.9375 15.546875 -13.257812 15.078125 -13.5 C 14.617188 -13.738281 13.867188 -14.097656 12.828125 -14.578125 C 11.785156 -15.066406 11.015625 -15.4375 10.515625 -15.6875 C 8.429688 -16.71875 6.816406 -18.003906 5.671875 -19.546875 C 4.535156 -21.097656 3.96875 -22.765625 3.96875 -24.546875 C 3.96875 -27.628906 5.109375 -30.148438 7.390625 -32.109375 C 9.671875 -34.078125 12.269531 -35.0625 15.1875 -35.0625 Z M 15.1875 -35.0625 "/></g></g></g></svg>